<svg xmlns="http://www.w3.org/2000/svg" viewBox="0 0 512 512" width="512" height="512">
  <defs>
    <style>
      .cloud-color { fill: #3B4A98; }
    </style>
  </defs>
  <!-- Cloud outline -->
  <path class="cloud-color" d="M400 160c-26.5 0-48.6 8.6-64 22.4-15.4-13.8-37.5-22.4-64-22.4-53 0-96 43-96 96 0 4 .3 8 .8 12C138.9 273.8 112 304.8 112 342c0 44.2 35.8 80 80 80h192c53 0 96-43 96-96 0-41.7-26.6-77.2-64-90.5-.3-3.8-.5-7.7-.5-11.5 0-53-43-96-96-96zm0 160H192c-26.5 0-48-21.5-48-48s21.5-48 48-48h16c0-35.3 28.7-64 64-64s64 28.7 64 64c35.3 0 64 28.7 64 64s-28.7 64-64 64z"/>
  
  <!-- Speed lines -->
  <g class="cloud-color">
    <!-- Line 1 -->
    <rect x="80" y="220" width="60" height="12" rx="6"/>
    <!-- Line 2 -->
    <rect x="70" y="250" width="80" height="12" rx="6"/>
    <!-- Line 3 -->
    <rect x="80" y="280" width="60" height="12" rx="6"/>
  </g>
</svg>